<svg xmlns="http://www.w3.org/2000/svg" width="36" height="36" viewBox="0 0 36 36"><defs><style>.a{fill:#fff;}</style></defs><g transform="translate(903 -3231)"><circle cx="18" cy="18" r="18" transform="translate(-903 3231)"/><path class="a" d="M563.7,1152.953c-2.2-.036-6.765,7.3-8.707,11.413a2.042,2.042,0,0,1-2.354,1.2,2.212,2.212,0,0,1-1.723-2.157,2.423,2.423,0,0,1,.239-.985c.065-.139,6.826-13.909,12.625-13.694,5.827-.022,12.131,13.964,12.19,14.105a2.365,2.365,0,0,1,.208.992,2.214,2.214,0,0,1-1.794,2.1,2.04,2.04,0,0,1-2.312-1.28c-1.755-4.062-6.175-11.66-8.373-11.7" transform="translate(-1448.912 2090.27)"/></g></svg>