<svg xmlns="http://www.w3.org/2000/svg" width="171.398" height="16.83" viewBox="0 0 171.398 16.83"><defs><style>.a,.b{fill:#fff;}.a{fill-rule:evenodd;}</style></defs><g transform="translate(-720.326 -204.835)"><path class="a" d="M725.392,214.236c-.049.255-.284,1.2-1.1,1.239v-.794a.468.468,0,0,1,.458-.445Zm-.829-.3h2.077a.6.6,0,0,1,.6.6v1.4a.6.6,0,0,1-.6.6h-2.077a.6.6,0,0,1-.595-.6v-1.4a.6.6,0,0,1,.595-.6m1.246.3c.052.255.289,1.2,1.1,1.239v-.794a.467.467,0,0,0-.458-.445Z"/><path class="a" d="M731.488,217.575a.3.3,0,1,1,.3.31.3.3,0,0,1-.3-.31"/><path class="a" d="M730.247,221.433c1.631,0,2.852-.326,2.852-.763s-1.028-.76-2.852-.76-2.855.329-2.855.76,1.225.763,2.855.763m0-7.763c1.757,0,2.722,3.006,1.623,6.2a10.113,10.113,0,0,0-3.245,0c-1.1-3.192-.133-6.2,1.622-6.2m0-8.289c2.082,0,7.06,3.194,8.6,4.877,1.046,1.143.392,1.975-1.266,1.87-2.672-.172-4.944-.341-7.335-.375-2.391.034-4.662.2-7.333.375-1.658.1-2.314-.727-1.269-1.87,1.537-1.683,6.523-4.877,8.606-4.877m4.7,1.318c-.221-.639-.234-.848.347-.838h1.231c.723,0,.415.441.276,1.159-.091.464-.072.6-.122.909-.709-.5-1.047-.83-1.732-1.23m-4.707,5.615c-1.92.028-3.629.161-6.414.309a6.456,6.456,0,0,1-1.135,3.537c-1.357,2.145.313,5.469,4.483,4.766,0,0-.033-.015-.114-.059-1.35-.649-1.6-1.52-.7-1.887.686-.279,1.561-.568,1.561-.568-.457-2.228.267-5.26,2.315-5.272,2.048.012,2.771,3.044,2.315,5.272,0,0,.874.289,1.561.568.905.367.653,1.238-.7,1.887-.083.044-.115.059-.115.059,4.169.7,5.838-2.621,4.48-4.766a6.437,6.437,0,0,1-1.13-3.537c-2.786-.148-4.5-.281-6.416-.309m0-7.479a11.062,11.062,0,0,1,4.232,1.651c-.016-.067-.036-.136-.057-.2-.114-.413-.03-.873.684-.873h1.566c.969,0,.837.521.655,1.24a9.36,9.36,0,0,0-.241,1.508s1.27.931,1.971,1.523c2.218,1.87.774,3.093-1.342,2.986q-.318-.013-.625-.031a5.4,5.4,0,0,0,1.173,3.076c2.458,2.936-.795,6.622-5.388,5.584a9.494,9.494,0,0,1-5.256,0c-4.591,1.038-7.847-2.648-5.387-5.584a5.39,5.39,0,0,0,1.171-3.076c-.2.012-.411.022-.625.031-2.114.107-3.559-1.134-1.34-3,.7-.593,1.97-1.506,1.97-1.506a30.2,30.2,0,0,1,2.608-1.67,11.047,11.047,0,0,1,4.231-1.651"/><path class="a" d="M734.688,214.236c-.049.255-.284,1.2-1.1,1.239v-.794a.467.467,0,0,1,.457-.445Zm-.829-.3h2.077a.6.6,0,0,1,.6.6v1.4a.6.6,0,0,1-.6.6h-2.077a.6.6,0,0,1-.6-.6v-1.4a.6.6,0,0,1,.6-.6m1.248.3c.051.255.286,1.2,1.1,1.239v-.794a.467.467,0,0,0-.457-.445Z"/><path class="b" d="M752.872,219.039c2.687.566,9.318.4,9.473-3.952,0-1.746-2.246-3.37-4.386-3.839a14.208,14.208,0,0,0-6.96,0c-1.634.628-2.148-.976-.655-1.523,2.829-1.031,13.843-1.252,14.364,5.362-.459,6.527-10.075,6.062-12.243,5.629-.855-.171-1.509-.563-1.509-1.657V213.62a.96.96,0,1,1,1.919.011Z"/><path class="b" d="M773.562,211.368c-2.144,0-5.755,6.543-6.814,8.888a1.123,1.123,0,1,1-2.01-1c1.142-2.522,5.442-10.137,8.806-10.07,3.365-.067,7.664,7.548,8.8,10.07a1.122,1.122,0,1,1-2.007,1c-1.061-2.345-4.637-8.888-6.779-8.888"/><path class="b" d="M788.563,218.749c2.143,0,5.754-6.541,6.815-8.886a1.123,1.123,0,1,1,2.009,1c-1.142,2.522-5.442,10.137-8.805,10.068-3.367.069-7.665-7.546-8.8-10.068a1.122,1.122,0,1,1,2.007-1c1.06,2.345,4.636,8.886,6.779,8.886"/><path class="b" d="M801,210.309v9.534a1.076,1.076,0,0,1-2.152-.055l0-9.5a1.078,1.078,0,1,1,2.154.026"/><path class="b" d="M811.294,218.749c2.143,0,5.757-6.541,6.814-8.886a1.123,1.123,0,1,1,2.01,1c-1.141,2.522-5.441,10.137-8.8,10.068-3.364.069-7.664-7.546-8.8-10.068a1.122,1.122,0,1,1,2.007-1c1.06,2.345,4.635,8.886,6.777,8.886"/><path class="b" d="M827.844,216.038a6.207,6.207,0,0,0,4.172,2.8,14.161,14.161,0,0,0,6.957,0c1.589-.515,2.148,1.021.643,1.528-2.947.992-13.764,1.348-14.4-5.279.349-6.311,8.994-6.148,12.292-5.717,1.613.212,1.282,1.918-.4,1.568-2.214-.3-8.211-.645-9.379,3.33l6.151,0c.961,0,.961,1.769,0,1.769Z"/><path class="b" d="M862.12,219.039c2.687.566,9.317.4,9.472-3.952,0-1.746-2.247-3.37-4.386-3.839a14.2,14.2,0,0,0-6.959,0c-1.636.628-2.15-.976-.656-1.523,2.829-1.031,13.842-1.252,14.364,5.362-.459,6.527-10.075,6.062-12.243,5.629-.856-.171-1.509-.563-1.509-1.657V213.62a.96.96,0,1,1,1.919.011Z"/><path class="b" d="M882.816,211.368c-2.144,0-5.756,6.543-6.816,8.888a1.122,1.122,0,1,1-2.008-1c1.141-2.522,5.438-10.137,8.8-10.07,3.366-.067,7.667,7.548,8.807,10.07a1.123,1.123,0,1,1-2.009,1c-1.059-2.345-4.636-8.888-6.776-8.888"/><path class="b" d="M823.724,210.309v9.534a1.076,1.076,0,0,1-2.152-.055v-9.5a1.077,1.077,0,1,1,2.152.026"/><path class="b" d="M849.617,217c-1.331-2.438-2.8-5.668-3.81-5.738-2.479-.01-1.357,4.892-1.4,8.713a1.079,1.079,0,0,1-2.152-.147c0-4.874-1.045-10.687,3.607-10.687,1.366,0,2.655,2.038,3.816,3.959,1.33,2.438,2.915,5.677,3.927,5.746,2.478.011,1.3-4.8,1.343-8.619a1.08,1.08,0,0,1,2.154.149c0,4.875,1.1,10.591-3.55,10.591-1.367,0-2.773-2.045-3.933-3.967"/></g></svg>