<svg xmlns="http://www.w3.org/2000/svg" width="162.013" height="16.01" viewBox="0 0 162.013 16.01"><defs><style>.a{fill:#fff;}</style></defs><path class="a" d="M638.419,177.94l5.257,1.748-5.257,1.8v1.559l7.106-2.554v-1.539l-7.106-2.549Zm0-2.239h7.106v-1.447h-7.106Zm6.126-9.253h-2.826v3.11h1.19V167.9h.9a3.361,3.361,0,0,1,.433.783,2.831,2.831,0,0,1,.178.91,1.952,1.952,0,0,1-.626,1.484,2.807,2.807,0,0,1-1.9.556,2.461,2.461,0,0,1-1.767-.546,1.967,1.967,0,0,1-.611-1.511,1.713,1.713,0,0,1,.319-1.038,1.441,1.441,0,0,1,.82-.565l-.266-1.437a2.6,2.6,0,0,0-1.535.964,3.459,3.459,0,0,0-.555,2.076,3.659,3.659,0,0,0,.36,1.706,3.159,3.159,0,0,0,1.323,1.375,4.08,4.08,0,0,0,1.96.464,4.154,4.154,0,0,0,1.894-.419,3.058,3.058,0,0,0,1.343-1.238,3.98,3.98,0,0,0,.462-1.962,5,5,0,0,0-.322-1.746A3.784,3.784,0,0,0,644.545,166.448Zm-6.126-1.309h7.106V163.7h-7.106Zm.05-4.3v1.441h7.056v-5.02h-1.2v3.579Zm-.05-6.667,7.106,2.775v-1.534l-1.613-.6v-2.844l1.613-.629v-1.566l-7.106,2.858Zm4.3-1.739v1.951l-2.647-.974Zm2.809-6.144a4.814,4.814,0,0,0-.147-1.274,2.334,2.334,0,0,0-.58-1.01,3.007,3.007,0,0,0-1.249-.769,4.607,4.607,0,0,0-1.508-.214,5,5,0,0,0-1.681.233,3.041,3.041,0,0,0-1.15.673,2.453,2.453,0,0,0-.652,1.087,4.759,4.759,0,0,0-.139,1.355V149h7.106Zm-1.2,1.273h-4.7v-.649a6.551,6.551,0,0,1,.059-1.188,1.354,1.354,0,0,1,.337-.66,1.55,1.55,0,0,1,.692-.4,3.889,3.889,0,0,1,1.268-.146,4.416,4.416,0,0,1,1.3.146,1.466,1.466,0,0,1,.675.369,1.137,1.137,0,0,1,.29.586,3.424,3.424,0,0,1,.072.864Zm-2.34-12.4a3.758,3.758,0,0,0-2.708.937,3.388,3.388,0,0,0-.979,2.534,3.7,3.7,0,0,0,.291,1.535,2.634,2.634,0,0,0,.632.933,3.276,3.276,0,0,0,.971.65,4.4,4.4,0,0,0,1.821.336,3.623,3.623,0,0,0,2.655-.946,3.354,3.354,0,0,0,.972-2.54,3.316,3.316,0,0,0-.972-2.5A3.645,3.645,0,0,0,641.984,135.158Zm1.819,4.868a2.617,2.617,0,0,1-1.83.57,2.647,2.647,0,0,1-1.847-.555,1.965,1.965,0,0,1,0-2.849,2.6,2.6,0,0,1,1.815-.546,2.681,2.681,0,0,1,1.863.554,1.926,1.926,0,0,1,0,2.826Zm-10.1,45.5h1.541V132.618H633.7Zm13.867-90.857a1.769,1.769,0,0,0-.41-.414,2.529,2.529,0,0,0-.653-.31,3.113,3.113,0,0,0-.915-.123,2.929,2.929,0,0,0-1.074.177,1.98,1.98,0,0,0-.777.543,1.4,1.4,0,0,0-.318.66,3.935,3.935,0,0,0-.073.816v1.559h4.517V95.942a3.112,3.112,0,0,0-.071-.732A2.289,2.289,0,0,0,647.565,94.669Zm-.234,2.305h-3.44v-.956a2.319,2.319,0,0,1,.083-.767,1.3,1.3,0,0,1,.519-.574,2.04,2.04,0,0,1,1.073-.227,2.372,2.372,0,0,1,.871.123,1.2,1.2,0,0,1,.574.327.92.92,0,0,1,.236.4,2.293,2.293,0,0,1,.084.713Zm0-4.59h-1.545V89.876h-.523v2.508h-1.372v-2.69h-.546v3.295h4.517v-3.4h-.531Zm-.9-9.222-.146.6a1.538,1.538,0,0,1,.857.482,1.318,1.318,0,0,1,.294.859,1.4,1.4,0,0,1-.21.759,1.209,1.209,0,0,1-.653.53,2.637,2.637,0,0,1-1.008.172,2.744,2.744,0,0,1-.852-.138,1.4,1.4,0,0,1-.683-.5,1.469,1.469,0,0,1-.237-.866,1.205,1.205,0,0,1,.22-.758,1.362,1.362,0,0,1,.71-.464l-.13-.6a1.805,1.805,0,0,0-.972.65,1.855,1.855,0,0,0-.351,1.145,2.235,2.235,0,0,0,.278,1.1,1.89,1.89,0,0,0,.8.774,2.611,2.611,0,0,0,1.22.271,3.1,3.1,0,0,0,1.222-.238,1.949,1.949,0,0,0,.869-.7,2.263,2.263,0,0,0,.285-1.194,1.907,1.907,0,0,0-.377-1.2A2.039,2.039,0,0,0,646.432,83.162Zm.413-4.614a2.589,2.589,0,0,0-1.226-.279,2.817,2.817,0,0,0-1.218.252,2.127,2.127,0,0,0-.833.779,2.152,2.152,0,0,0-.3,1.125A2.034,2.034,0,0,0,643.912,82a2.444,2.444,0,0,0,1.752.6,2.6,2.6,0,0,0,1.136-.261,1.979,1.979,0,0,0,.838-.767,2.108,2.108,0,0,0,.3-1.135,2.166,2.166,0,0,0-.285-1.11A1.8,1.8,0,0,0,646.845,78.548Zm.117,2.989a1.762,1.762,0,0,1-1.283.449,1.953,1.953,0,0,1-1.461-.455,1.581,1.581,0,0,1-.424-1.106,1.435,1.435,0,0,1,.854-1.354,2.347,2.347,0,0,1,.959-.189,1.926,1.926,0,0,1,1.348.441,1.455,1.455,0,0,1,.482,1.12A1.418,1.418,0,0,1,646.962,81.537Zm.9-6.86h-.531v2.237h-3.986v.6h4.517Zm-1.017-4.6a2.509,2.509,0,0,0-1.226-.279,2.574,2.574,0,0,0-1.218.27,2.044,2.044,0,0,0-.833.768,2.146,2.146,0,0,0-.3,1.129,1.992,1.992,0,0,0,.641,1.566,2.406,2.406,0,0,0,1.752.614,2.521,2.521,0,0,0,1.136-.26,1.965,1.965,0,0,0,.838-.761,2.185,2.185,0,0,0,.3-1.159,2.158,2.158,0,0,0-.285-1.095A1.924,1.924,0,0,0,646.845,70.077Zm.117,3.007a1.8,1.8,0,0,1-1.283.441,1.978,1.978,0,0,1-1.461-.451,1.588,1.588,0,0,1-.424-1.109,1.547,1.547,0,0,1,.22-.817,1.586,1.586,0,0,1,.634-.54,2.381,2.381,0,0,1,.959-.186,1.914,1.914,0,0,1,1.348.433,1.537,1.537,0,0,1,.007,2.229Zm.9-4.624h-3.837l3.837-1.306v-.546l-3.771-1.315h3.771V64.71h-4.517v.811l3.145,1.087c.322.114.566.186.737.243-.15.049-.382.12-.68.213l-3.2,1.078v.9h4.517Zm0-6.427a2.976,2.976,0,0,0-.071-.727,1.378,1.378,0,0,0-.226-.5,1.2,1.2,0,0,0-.422-.325,1.219,1.219,0,0,0-.589-.154,1.094,1.094,0,0,0-.677.243,1.157,1.157,0,0,0-.419.623,1.111,1.111,0,0,0-.405-.482,1.113,1.113,0,0,0-1.568.514,2.373,2.373,0,0,0-.14.849v1.7h4.517Zm-2.615,1.144h-1.356v-.915a2.453,2.453,0,0,1,.058-.7.57.57,0,0,1,.229-.309.781.781,0,0,1,.4-.1.619.619,0,0,1,.393.123.609.609,0,0,1,.226.341,1.966,1.966,0,0,1,.05.565Zm2.084,0h-1.553V62.113a2.05,2.05,0,0,1,.082-.661.626.626,0,0,1,.261-.351.667.667,0,0,1,.433-.139.751.751,0,0,1,.385.089.6.6,0,0,1,.251.23,1,1,0,0,1,.124.343,3.741,3.741,0,0,1,.017.409Zm.531-4.363h-4.517v.6h4.517Zm0-1.2-1.36-.5v-1.9l1.36-.533V54l-4.517,1.848V56.5l4.517,1.741Zm-1.849-.67-1.32-.508a5.859,5.859,0,0,0-.866-.235c.241-.073.554-.187.944-.329l1.242-.473Zm-7.363,68.411a.558.558,0,0,1,.366-.114.683.683,0,0,1,.392.124,1.059,1.059,0,0,1,.279.39,1.7,1.7,0,0,1,.1.615,1.675,1.675,0,0,1-.139.692.962.962,0,0,1-.351.451,1.137,1.137,0,0,1-.557.186l.042.564a1.446,1.446,0,0,0,1.356-.888,2.563,2.563,0,0,0,.189-1.046,2.1,2.1,0,0,0-.182-.873,1.373,1.373,0,0,0-.5-.6,1.265,1.265,0,0,0-.677-.205,1.181,1.181,0,0,0-.646.186,1.466,1.466,0,0,0-.463.588,7.67,7.67,0,0,0-.284,1,2.592,2.592,0,0,1-.322.915.512.512,0,0,1-.4.165.606.606,0,0,1-.482-.238,1.349,1.349,0,0,1-.205-.8,1.134,1.134,0,0,1,.241-.79.819.819,0,0,1,.634-.311L637,124.79a1.419,1.419,0,0,0-.706.223,1.174,1.174,0,0,0-.478.6,2.261,2.261,0,0,0-.164.888,2.335,2.335,0,0,0,.152.838,1.238,1.238,0,0,0,.452.567,1.181,1.181,0,0,0,.647.2.886.886,0,0,0,.543-.164,1.245,1.245,0,0,0,.441-.483,4.312,4.312,0,0,0,.273-.877,5.774,5.774,0,0,1,.224-.8A.88.88,0,0,1,638.65,125.355Zm.555-2.24a2.416,2.416,0,0,1-.873.119h-2.6v.6h2.61a3.228,3.228,0,0,0,1.122-.173,1.266,1.266,0,0,0,.643-.588,2.253,2.253,0,0,0,.22-1.037,1.931,1.931,0,0,0-.262-1.07,1.311,1.311,0,0,0-.638-.555,3.25,3.25,0,0,0-1.085-.15h-2.61v.595h2.6a1.718,1.718,0,0,1,1.156.287,1.242,1.242,0,0,1,.3.933,1.406,1.406,0,0,1-.156.66A.835.835,0,0,1,639.205,123.115Zm-3.476-3.858h4.512v-.6H638.4V117.5a1.82,1.82,0,0,0-.39-1.342,1.431,1.431,0,0,0-1.595-.228,1.16,1.16,0,0,0-.441.359,1.357,1.357,0,0,0-.209.556,4.631,4.631,0,0,0-.04.687Zm.525-1.757a2.55,2.55,0,0,1,.043-.565.689.689,0,0,1,.268-.386.859.859,0,0,1,.482-.136.777.777,0,0,1,.612.228,1.281,1.281,0,0,1,.214.84v1.179h-1.619Zm-.525-2.485h4.512v-3.4h-.532v2.794h-1.538V111.9h-.527v2.508h-1.39v-2.685h-.525Zm0-4.236h4.512v-.6h-2.006v-.693a2.245,2.245,0,0,1,.02-.334.939.939,0,0,1,.127-.278,1.325,1.325,0,0,1,.3-.3c.149-.1.356-.261.624-.432l.937-.605v-.75l-1.225.782a2.778,2.778,0,0,0-.6.508,1.431,1.431,0,0,0-.228.358,1.6,1.6,0,0,0-.426-.972,1.092,1.092,0,0,0-.81-.3,1.358,1.358,0,0,0-.673.179,1.045,1.045,0,0,0-.433.5,2.78,2.78,0,0,0-.12.926Zm.495-2.036a1.08,1.08,0,0,1,.206-.737.644.644,0,0,1,.525-.235.7.7,0,0,1,.683.473,1.859,1.859,0,0,1,.082.646v1.289h-1.5Zm-.495-2.637h4.512v-.6h-4.512Zm0-1.651h4.512v-.579H636.7l3.544-2.386v-.615h-4.512v.584h3.547l-3.547,2.375Zm0-4.248h.525V98.714h3.987v-.6h-3.987v-1.5h-.525Zm0-4.229h4.512V92.6h-.532v2.786h-1.538V92.873h-.527v2.508h-1.39V92.7h-.525Zm0-4.2h4.512v-.588H636.7l3.544-2.384v-.623h-4.512v.581h3.547l-3.547,2.386Zm0-4.6h4.512V85.539a3.853,3.853,0,0,0-.065-.727,2.128,2.128,0,0,0-.232-.537,2.249,2.249,0,0,0-.4-.419,2.394,2.394,0,0,0-.672-.311,3.459,3.459,0,0,0-.909-.122,2.942,2.942,0,0,0-1.075.186,1.757,1.757,0,0,0-.774.533,1.55,1.55,0,0,0-.314.66,3.139,3.139,0,0,0-.07.819Zm.525-1.553a2.211,2.211,0,0,1,.1-.775,1.093,1.093,0,0,1,.493-.572,2.153,2.153,0,0,1,1.1-.236,2.766,2.766,0,0,1,.876.121,1.57,1.57,0,0,1,.562.337.956.956,0,0,1,.237.408,2.193,2.193,0,0,1,.081.7v.972h-3.455Zm-.525-3.046h4.512V79.2h-.532v2.785h-1.538V79.478h-.527v2.508h-1.39V79.3h-.525Zm0-4.206h4.512V77.8H636.7l3.544-2.394v-.6h-4.512v.564h3.547l-3.547,2.384Zm.991-4.687a2.677,2.677,0,0,0,1.233.278,3.2,3.2,0,0,0,1.21-.236,1.869,1.869,0,0,0,.861-.705,2.179,2.179,0,0,0,.3-1.2,1.821,1.821,0,0,0-.4-1.193,1.889,1.889,0,0,0-1.112-.685l-.154.6a1.426,1.426,0,0,1,.857.473,1.234,1.234,0,0,1,.3.849,1.418,1.418,0,0,1-.225.778,1.288,1.288,0,0,1-.637.521,2.628,2.628,0,0,1-1,.164,2.746,2.746,0,0,1-.863-.139,1.28,1.28,0,0,1-.674-.492,1.451,1.451,0,0,1-.253-.88,1.218,1.218,0,0,1,.229-.754,1.333,1.333,0,0,1,.718-.445l-.139-.6a1.721,1.721,0,0,0-.962.642,1.833,1.833,0,0,0-.353,1.147,2.227,2.227,0,0,0,.279,1.1A1.724,1.724,0,0,0,636.72,73.689Zm-.991-4.584h4.512v-.594h-4.512Zm4.512-4.726V63.7l-4.512,1.853V66.2l4.512,1.747V67.3l-1.37-.5v-1.9Zm-1.853,2.252-1.326-.5a4.5,4.5,0,0,0-.857-.236c.237-.067.555-.189.924-.325l1.259-.475Zm1.853-5.808h-2.05v-2.13h-.532v2.13h-1.4V58.348h-.525v3.064h4.512Zm0-3.954h-4.512v.606h4.512Zm0-4.627h-4.512v.577h3.547L635.729,55.2v.6h4.512v-.573H636.7l3.544-2.365Zm0-4.078v-.678l-4.512,1.854v.653l4.512,1.738v-.644l-1.37-.489v-1.9Zm-1.853,2.261-1.326-.495a5.374,5.374,0,0,0-.857-.256,8.76,8.76,0,0,0,.924-.327l1.259-.464Zm1.853-7h-4.512v.579h3.547L635.729,46.4v.612h4.512v-.587H636.7l3.544-2.384Zm-3.521-1.1a2.677,2.677,0,0,0,1.233.278,3.209,3.209,0,0,0,1.21-.247,1.84,1.84,0,0,0,.861-.7,2.184,2.184,0,0,0,.3-1.193,1.87,1.87,0,0,0-1.513-1.88l-.154.6a1.44,1.44,0,0,1,.857.472,1.254,1.254,0,0,1,.3.86,1.379,1.379,0,0,1-.225.766,1.266,1.266,0,0,1-.637.532,2.835,2.835,0,0,1-1,.165,2.777,2.777,0,0,1-.863-.141,1.292,1.292,0,0,1-.674-.5,1.457,1.457,0,0,1-.253-.874,1.177,1.177,0,0,1,.229-.754,1.382,1.382,0,0,1,.718-.458l-.139-.594A1.681,1.681,0,0,0,636,39.3a1.826,1.826,0,0,0-.353,1.152,2.144,2.144,0,0,0,.279,1.092A1.788,1.788,0,0,0,636.72,42.325Zm3.521-5.2h-4.512v.613h4.512Zm0-4.451h-.532v2.784h-1.538V32.955h-.527v2.506h-1.39V32.785h-.525v3.283h4.512Zm0-1.445h-2.006v-.694a2.19,2.19,0,0,1,.02-.328.978.978,0,0,1,.127-.283,1.059,1.059,0,0,1,.3-.3c.149-.123.356-.264.624-.441l.937-.6v-.761l-1.225.8a2.477,2.477,0,0,0-.6.5,1.251,1.251,0,0,0-.228.358,1.527,1.527,0,0,0-.426-.961,1.051,1.051,0,0,0-.81-.311,1.252,1.252,0,0,0-.673.179,1.032,1.032,0,0,0-.433.514,2.685,2.685,0,0,0-.12.923v2.006h4.512Zm-2.521,0h-1.5V29.8a1.159,1.159,0,0,1,.206-.753.693.693,0,0,1,.525-.22.835.835,0,0,1,.415.115.926.926,0,0,1,.268.35,1.816,1.816,0,0,1,.082.647Zm2.521-4.1-1.37-.5v-1.9l1.37-.533v-.686l-4.512,1.864v.645l4.512,1.741Zm-1.853-.677-1.326-.5a7.135,7.135,0,0,0-.857-.251,8.418,8.418,0,0,0,.924-.313l1.259-.479Zm9.787,106.163v52.908h1.533V132.618Z" transform="translate(185.526 -633.698) rotate(90)"/></svg>