<svg xmlns="http://www.w3.org/2000/svg" width="170.099" height="16.692" viewBox="0 0 170.099 16.692"><defs><style>.a{fill:#fff;}.b{fill:#e20518;}.b,.c,.d,.e,.g{fill-rule:evenodd;}.c{fill:#007abf;}.d{fill:#ffe000;}.e{fill:#f39700;}.f,.g{fill:#1d1d1b;}</style></defs><g transform="translate(-721.549 -129.755)"><path class="a" d="M753.931,144.1c2.665.561,9.242.393,9.395-3.92,0-1.731-2.227-3.343-4.349-3.806a14.043,14.043,0,0,0-6.9,0c-1.621.622-2.131-.971-.651-1.51,2.806-1.024,13.73-1.243,14.246,5.316-.453,6.473-9.992,6.011-12.141,5.584-.851-.169-1.5-.561-1.5-1.644v-5.394a.951.951,0,1,1,1.9.01Z"/><path class="a" d="M774.451,136.491c-2.125,0-5.707,6.488-6.759,8.814a1.113,1.113,0,1,1-1.991-.992c1.13-2.5,5.4-10.054,8.732-9.988,3.337-.066,7.6,7.485,8.732,9.988a1.113,1.113,0,1,1-1.991.992c-1.052-2.326-4.6-8.814-6.723-8.814"/><path class="a" d="M789.33,143.812c2.125,0,5.707-6.488,6.757-8.815a1.113,1.113,0,1,1,1.992.993c-1.13,2.5-5.395,10.054-8.731,9.988-3.337.066-7.6-7.486-8.733-9.988a1.113,1.113,0,1,1,1.992-.993c1.05,2.327,4.6,8.815,6.723,8.815"/><path class="a" d="M801.664,135.44V144.9a1.068,1.068,0,0,1-2.136-.055v-9.427a1.069,1.069,0,1,1,2.137.026"/><path class="a" d="M811.876,143.812c2.125,0,5.707-6.488,6.759-8.815a1.113,1.113,0,1,1,1.992.993c-1.131,2.5-5.4,10.054-8.733,9.988-3.337.066-7.6-7.486-8.732-9.988a1.113,1.113,0,1,1,1.991-.993c1.05,2.327,4.6,8.815,6.723,8.815"/><path class="a" d="M828.289,141.123a6.166,6.166,0,0,0,4.137,2.777,14.094,14.094,0,0,0,6.9,0c1.575-.512,2.13,1.012.639,1.513-2.925.984-13.653,1.339-14.286-5.233.35-6.262,8.922-6.1,12.193-5.673,1.6.21,1.273,1.9-.4,1.556-2.2-.294-8.143-.639-9.3,3.3l6.1,0c.953,0,.953,1.756,0,1.756Z"/><path class="a" d="M862.285,144.1c2.665.561,9.242.393,9.4-3.92,0-1.731-2.227-3.343-4.351-3.806a14.039,14.039,0,0,0-6.9,0c-1.621.622-2.131-.971-.652-1.51,2.807-1.024,13.731-1.243,14.248,5.316-.454,6.473-9.991,6.011-12.142,5.584-.85-.169-1.5-.561-1.5-1.644v-5.394a.951.951,0,1,1,1.9.01Z"/><path class="a" d="M882.811,136.491c-2.125,0-5.709,6.488-6.759,8.814a1.113,1.113,0,1,1-1.991-.992c1.13-2.5,5.4-10.054,8.732-9.988,3.337-.066,7.6,7.485,8.733,9.988a1.113,1.113,0,1,1-1.992.992c-1.052-2.326-4.6-8.814-6.723-8.814"/><path class="a" d="M824.2,135.44V144.9a1.067,1.067,0,0,1-2.134-.055v-9.427a1.068,1.068,0,1,1,2.135.026"/><path class="a" d="M849.885,142.08c-1.319-2.418-2.776-5.623-3.78-5.691-2.457-.012-1.344,4.852-1.39,8.641a1.071,1.071,0,0,1-2.136-.146c0-4.835-1.034-10.6,3.58-10.6,1.354,0,2.633,2.021,3.783,3.927,1.32,2.418,2.893,5.63,3.9,5.7,2.458.011,1.287-4.757,1.332-8.547a1.07,1.07,0,0,1,2.135.148c0,4.834,1.094,10.5-3.519,10.5-1.355,0-2.752-2.028-3.9-3.934"/><path class="b" d="M724.686,137.126a6.373,6.373,0,0,1-1.35,3.842c-1.41,2.227.819,5.947,5.311,5a9.73,9.73,0,0,0,5.492.007c4.495.943,6.711-2.784,5.3-5.011a6.378,6.378,0,0,1-1.351-3.842Z"/><path class="c" d="M731.387,146.35c-4.392-.113-5.188-2.133-3.973-2.557.7-.246,1.631-.658,1.631-.658-.469-2.282.3-5.191,2.355-5.188s2.8,3,2.332,5.236c0,0,.936.337,1.63.61,1.142.448.417,2.444-3.975,2.557"/><path class="d" d="M729.733,144.738c-1.157-3.206-.143-6.3,1.654-6.292,1.713.013,2.873,2.973,1.665,6.306a8.713,8.713,0,0,0-1.724-.129,11.625,11.625,0,0,0-1.6.115"/><path class="e" d="M731.387,146.383c1.769,0,3.161-.38,3.161-.908s-1.392-.907-3.161-.907-3.16.379-3.16.907,1.391.908,3.16.908"/><path class="c" d="M725.544,138.734h2.122a.61.61,0,0,1,.61.61v1.431a.609.609,0,0,1-.61.61h-2.122a.61.61,0,0,1-.61-.61v-1.431a.61.61,0,0,1,.61-.61"/><path class="f" d="M727.666,141.44h-2.122a.666.666,0,0,1-.666-.664v-1.432a.667.667,0,0,1,.666-.666h2.122a.666.666,0,0,1,.666.666v1.432a.665.665,0,0,1-.666.664m-2.122-2.649a.555.555,0,0,0-.555.553v1.432a.555.555,0,0,0,.555.553h2.122a.554.554,0,0,0,.554-.553v-1.432a.554.554,0,0,0-.554-.553Z"/><path class="f" d="M.459,0H2.141A.46.46,0,0,1,2.6.46V1.5a.459.459,0,0,1-.459.459H.459A.459.459,0,0,1,0,1.5V.459A.459.459,0,0,1,.459,0Z" transform="translate(725.327 139.078)"/><path class="d" d="M727.928,140.32c-.76-.076-1.025-.966-1.088-1.241h.629a.459.459,0,0,1,.459.457Z"/><path class="d" d="M726.426,139.078c-.05.254-.289,1.206-1.1,1.246v-.787a.459.459,0,0,1,.459-.459Z"/><path class="c" d="M735.108,138.734h2.124a.611.611,0,0,1,.61.61v1.431a.61.61,0,0,1-.61.61h-2.124a.61.61,0,0,1-.609-.61v-1.431a.61.61,0,0,1,.609-.61"/><path class="f" d="M737.232,141.44h-2.124a.665.665,0,0,1-.664-.664v-1.432a.666.666,0,0,1,.664-.666h2.124a.665.665,0,0,1,.664.666v1.432a.664.664,0,0,1-.664.664m-2.124-2.649a.554.554,0,0,0-.553.553v1.432a.555.555,0,0,0,.553.553h2.124a.554.554,0,0,0,.553-.553v-1.432a.554.554,0,0,0-.553-.553Z"/><path class="f" d="M.459,0H2.141A.46.46,0,0,1,2.6.46V1.5a.459.459,0,0,1-.459.459H.459A.459.459,0,0,1,0,1.5V.459A.459.459,0,0,1,.459,0Z" transform="translate(734.892 139.078)"/><path class="d" d="M737.493,140.32c-.76-.076-1.025-.966-1.088-1.241h.629a.459.459,0,0,1,.459.457Z"/><path class="d" d="M735.99,139.078c-.049.254-.288,1.206-1.1,1.246v-.787a.459.459,0,0,1,.458-.459Z"/><path class="b" d="M735.782,131.613c-.226-.761-.264-1.144.432-1.146h1.542c.93-.018.546.708.456,1.42a12.112,12.112,0,0,0-.12,1.222s-2.307-1.485-2.31-1.5"/><path class="e" d="M731.38,137.055c-2.287,0-5.437.2-7.458.353-1.552.12-2.752-1.061-1.719-2.18,2.2-2.379,7.566-5.385,9.193-5.385,1.73,0,7,3.006,9.194,5.385,1.031,1.119-.009,2.18-1.567,2.18-1.735,0-5.356-.35-7.643-.353"/><path class="g" d="M732.619,142.392a.3.3,0,1,1,.3.307.3.3,0,0,1-.3-.307"/><path class="g" d="M731.389,144.522a10.268,10.268,0,0,0-1.65.135c-1.086-3.17-.09-6.157,1.65-6.157s2.738,2.993,1.65,6.158a9.633,9.633,0,0,0-1.65-.136m1.612.248c.9.143,1.5.406,1.5.706,0,.459-1.392.831-3.109.831s-3.115-.372-3.115-.831c0-.3.6-.563,1.5-.708,0,0,.98-.117,1.609-.117s1.612.119,1.612.119m.132-.1c1.142-3.288.034-6.31-1.744-6.3s-2.885,3.013-1.743,6.3c-.881.172-1.465.467-1.465.8a.411.411,0,0,0,.172.307c-1.481-.652-1.619-1.712-.808-2,.7-.249,1.558-.581,1.558-.581-.454-2.215.245-5.185,2.286-5.185s2.739,2.97,2.286,5.185c0,0,.853.345,1.559.581.794.265.676,1.333-.8,1.991a.413.413,0,0,0,.159-.3c0-.335-.584-.63-1.464-.8m2.76-13.1c-.177-.695-.179-.982.421-.984l1.318,0c.875-.016.517.661.437,1.334-.049.41-.079.735-.091.988-.7-.493-1.408-.942-2.085-1.34m-1.534,14.377c4.216.713,6.278-2.822,4.924-4.959a7.267,7.267,0,0,1-1.328-3.509c-2.763-.146-4.663-.28-6.566-.307-1.9.027-3.8.161-6.566.307a7.268,7.268,0,0,1-1.328,3.509c-1.354,2.137.71,5.674,4.926,4.959-1.791-.677-2.01-1.833-1.053-2.2.7-.269,1.631-.611,1.631-.611-.467-2.28.341-5.289,2.39-5.286s2.857,3.006,2.39,5.286c0,0,.935.342,1.631.611.958.369.737,1.525-1.051,2.2m-2.967-9.058c-2.372.034-4.627.2-7.276.372-1.645.105-2.569-.994-1.531-2.127,1.526-1.671,6.738-5.109,8.8-5.109s7.278,3.438,8.8,5.109c1.036,1.133.114,2.232-1.53,2.127-2.65-.172-4.9-.338-7.271-.372m4.194-5.5c-.017-.068-.036-.137-.056-.2-.114-.41-.011-.866.7-.866h1.534c.905,0,.8.624.65,1.229a9.276,9.276,0,0,0-.238,1.5s1.259.925,1.956,1.512c2.2,1.853.765,3.067-1.332,2.961l-.621-.029a5.345,5.345,0,0,0,1.164,3.048c2.437,2.913-.789,6.569-5.344,5.541a9.485,9.485,0,0,1-5.212,0c-4.557,1.028-7.781-2.628-5.345-5.541a5.339,5.339,0,0,0,1.163-3.05l-.621.031c-2.1.106-3.531-1.108-1.33-2.961,3.265-2.754,7.215-4.8,8.738-4.806a11.014,11.014,0,0,1,4.2,1.639"/></g></svg>